<?xml version="1.0" encoding="UTF-8" standalone="no"?>
<!DOCTYPE svg PUBLIC "-//W3C//DTD SVG 1.1//EN" "http://www.w3.org/Graphics/SVG/1.1/DTD/svg11.dtd">
<svg width="100%" height="100%" viewBox="0 0 256 256" version="1.1" xmlns="http://www.w3.org/2000/svg" xmlns:xlink="http://www.w3.org/1999/xlink" xml:space="preserve" xmlns:serif="http://www.serif.com/" style="fill-rule:evenodd;clip-rule:evenodd;stroke-linecap:round;stroke-linejoin:round;stroke-miterlimit:1.5;">
    <rect x="0" y="0" width="256" height="256" style="fill:rgb(111,187,239);"/>
    <g transform="matrix(1,0,0,-1,0,256)">
        <path d="M0,85.947C0,85.947 4.071,127.755 30,138C55.929,148.245 85.835,133.702 98,138C110.165,142.298 125.795,177.077 138,180C150.205,182.923 182.601,155.116 204,158C225.399,160.884 256,147 256,147L256,0L0,0L0,85.947Z" style="fill:rgb(226,213,181);"/>
    </g>
    <g transform="matrix(1,0,0,1,0,13)">
        <path d="M-12,203C-12,203 43.121,178.201 120,165.892C200.712,152.97 287,152 287,152" style="fill:none;stroke:white;stroke-width:10px;"/>
    </g>
    <path d="M193.624,170.02L210,271" style="fill:none;stroke:white;stroke-width:6px;"/>
    <path d="M206,180C206,180 225.352,178.514 234,178C242.605,177.489 264,177 264,177L268,265L221,263L206,180Z" style="fill:rgb(167,208,139);"/>
    <g transform="matrix(0.990991,-0.133926,0.133926,0.990991,-7.31458,13.0665)">
        <path d="M160,195L110,195L110,246L129,246L129,216L160,216L160,195Z" style="fill:rgb(177,167,149);"/>
    </g>
    <path d="M88,187L102,271" style="fill:none;stroke:white;stroke-width:6px;"/>
    <g id="Marker" transform="matrix(2.36625,-0.302027,0.302027,2.36625,-772.255,-359.854)">
        <g id="Stroke" transform="matrix(1.22321,0,0,1.22321,326.759,219.42)">
            <path d="M21.766,-1.544L21.895,-1.526L22.024,-1.508L22.153,-1.488L22.282,-1.468L22.41,-1.447L22.538,-1.426L22.666,-1.403L22.793,-1.38L22.92,-1.356L23.047,-1.331L23.174,-1.306L23.3,-1.28L23.426,-1.252L23.552,-1.225L23.678,-1.196L23.803,-1.167L23.928,-1.137L24.052,-1.106L24.177,-1.074L24.301,-1.042L24.425,-1.009L24.548,-0.975L24.671,-0.94L24.794,-0.905L24.917,-0.869L25.039,-0.832L25.161,-0.794L25.282,-0.756L25.404,-0.717L25.525,-0.677L25.645,-0.637L25.765,-0.596L25.885,-0.554L26.005,-0.511L26.124,-0.468L26.243,-0.424L26.362,-0.379L26.48,-0.334L26.598,-0.288L26.715,-0.241L26.833,-0.194L26.949,-0.145L27.066,-0.097L27.182,-0.047L27.298,0.003L27.413,0.054L27.528,0.106L27.643,0.158L27.757,0.211L27.871,0.265L27.984,0.319L28.097,0.374L28.21,0.43L28.323,0.486L28.434,0.543L28.546,0.6L28.657,0.659L28.768,0.717L28.878,0.777L28.988,0.837L29.098,0.898L29.207,0.96L29.316,1.022L29.424,1.084L29.532,1.148L29.639,1.212L29.746,1.276L29.853,1.342L29.959,1.407L30.065,1.474L30.17,1.541L30.275,1.609L30.38,1.677L30.484,1.746L30.587,1.816L30.69,1.886L30.793,1.957L30.895,2.028L30.997,2.1L31.098,2.172L31.199,2.246L31.3,2.319L31.4,2.394L31.499,2.468L31.598,2.544L31.697,2.62L31.795,2.697L31.892,2.774L31.99,2.852L32.086,2.93L32.182,3.009L32.278,3.088L32.373,3.168L32.468,3.249L32.562,3.33L32.656,3.412L32.749,3.494L32.842,3.577L32.934,3.66L33.026,3.744L33.117,3.828L33.208,3.913L33.298,3.999L33.388,4.085L33.477,4.172L33.566,4.259L33.654,4.346L33.741,4.434L33.828,4.523L33.915,4.612L34.001,4.702L34.087,4.792L34.172,4.883L34.256,4.974L34.34,5.066L34.423,5.158L34.506,5.251L34.588,5.344L34.67,5.438L34.751,5.532L34.832,5.627L34.912,5.722L34.991,5.818L35.07,5.914L35.148,6.01L35.226,6.108L35.303,6.205L35.38,6.303L35.456,6.402L35.532,6.501L35.606,6.6L35.681,6.7L35.754,6.801L35.828,6.902L35.9,7.003L35.972,7.105L36.043,7.207L36.114,7.31L36.184,7.413L36.254,7.516L36.323,7.62L36.391,7.725L36.459,7.83L36.526,7.935L36.593,8.041L36.658,8.147L36.724,8.254L36.788,8.361L36.852,8.468L36.916,8.576L36.978,8.684L37.04,8.793L37.102,8.902L37.163,9.012L37.223,9.122L37.283,9.232L37.341,9.343L37.4,9.454L37.457,9.566L37.514,9.677L37.57,9.79L37.626,9.903L37.681,10.016L37.735,10.129L37.789,10.243L37.842,10.357L37.894,10.472L37.946,10.587L37.997,10.702L38.047,10.818L38.097,10.934L38.145,11.05L38.194,11.167L38.241,11.284L38.288,11.402L38.334,11.52L38.379,11.638L38.424,11.757L38.468,11.876L38.511,11.995L38.554,12.115L38.596,12.234L38.637,12.355L38.677,12.475L38.717,12.596L38.756,12.718L38.794,12.839L38.832,12.961L38.869,13.083L38.905,13.206L38.94,13.329L38.975,13.452L39.009,13.575L39.042,13.699L39.074,13.823L39.106,13.948L39.137,14.072L39.167,14.197L39.196,14.322L39.225,14.448L39.252,14.574L39.28,14.7L39.306,14.826L39.331,14.953L39.356,15.08L39.38,15.207L39.403,15.334L39.426,15.462L39.447,15.59L39.468,15.718L39.488,15.847L39.508,15.976L39.526,16.105L39.544,16.234L39.561,16.363L39.577,16.493L39.592,16.623L39.607,16.753L39.62,16.884L39.633,17.014L39.645,17.145L39.656,17.276L39.667,17.408L39.676,17.539L39.685,17.671L39.693,17.803L39.7,17.935L39.707,18.068L39.712,18.2L39.717,18.333L39.721,18.466L39.723,18.599L39.726,18.733L39.727,18.866L39.727,19L39.727,19.074L39.726,19.147L39.725,19.221L39.723,19.295L39.721,19.369L39.718,19.444L39.715,19.518L39.711,19.592L39.707,19.667L39.702,19.741L39.697,19.816L39.691,19.89L39.685,19.965L39.678,20.04L39.671,20.115L39.664,20.19L39.656,20.265L39.647,20.34L39.638,20.415L39.629,20.491L39.619,20.566L39.609,20.642L39.598,20.717L39.587,20.793L39.575,20.869L39.563,20.945L39.551,21.02L39.538,21.096L39.525,21.173L39.511,21.249L39.497,21.325L39.483,21.401L39.468,21.478L39.453,21.554L39.437,21.631L39.421,21.707L39.405,21.784L39.388,21.861L39.371,21.938L39.353,22.015L39.335,22.092L39.317,22.169L39.298,22.246L39.279,22.324L39.26,22.401L39.24,22.479L39.22,22.556L39.199,22.634L39.178,22.712L39.157,22.789L39.135,22.867L39.113,22.945L39.091,23.023L39.068,23.101L39.045,23.18L39.022,23.258L38.998,23.336L38.974,23.415L38.95,23.493L38.925,23.572L38.9,23.651L38.875,23.729L38.849,23.808L38.823,23.887L38.796,23.966L38.77,24.045L38.743,24.124L38.715,24.205L38.66,24.362L38.603,24.521L38.545,24.68L38.485,24.84L38.425,25L38.363,25.16L38.3,25.32L38.236,25.481L38.171,25.642L38.104,25.803L38.037,25.964L37.968,26.126L37.899,26.288L37.828,26.45L37.756,26.612L37.683,26.775L37.609,26.937L37.534,27.1L37.459,27.264L37.382,27.427L37.304,27.59L37.225,27.754L37.145,27.918L37.064,28.082L36.983,28.246L36.9,28.411L36.817,28.575L36.732,28.74L36.647,28.905L36.561,29.07L36.474,29.235L36.386,29.4L36.298,29.565L36.209,29.73L36.118,29.896L36.028,30.061L35.936,30.227L35.844,30.392L35.75,30.558L35.657,30.723L35.562,30.889L35.467,31.055L35.371,31.22L35.274,31.386L35.177,31.552L35.079,31.717L34.981,31.883L34.881,32.049L34.782,32.214L34.681,32.38L34.581,32.545L34.479,32.71L34.377,32.876L34.275,33.041L34.172,33.206L34.068,33.371L33.964,33.536L33.859,33.7L33.754,33.865L33.649,34.029L33.543,34.194L33.437,34.358L33.33,34.522L33.223,34.685L33.115,34.849L33.008,35.012L32.899,35.175L32.791,35.338L32.682,35.501L32.573,35.663L32.463,35.825L32.353,35.987L32.243,36.148L32.133,36.31L32.022,36.471L31.911,36.631L31.8,36.791L31.689,36.951L31.577,37.111L31.466,37.27L31.354,37.429L31.242,37.588L31.13,37.746L31.017,37.904L30.905,38.061L30.792,38.218L30.68,38.375L30.567,38.531L30.454,38.686L30.342,38.842L30.229,38.996L30.116,39.151L30.003,39.304L29.89,39.458L29.777,39.611L29.664,39.763L29.551,39.915L29.439,40.066L29.326,40.216L29.213,40.366L29.101,40.516L28.988,40.665L28.764,40.961L28.54,41.255L28.317,41.546L28.095,41.834L27.873,42.12L27.653,42.403L27.434,42.683L27.216,42.96L26.999,43.235L26.784,43.506L26.57,43.773L26.358,44.038L26.148,44.299L25.94,44.557L25.734,44.811L25.53,45.061L25.328,45.308L25.128,45.551L24.931,45.79L24.736,46.025L24.544,46.256L24.355,46.483L24.168,46.706L23.985,46.924L23.804,47.138L23.627,47.347L23.453,47.552L23.283,47.752L23.116,47.948L22.952,48.138L22.792,48.324L22.637,48.504L22.485,48.68L22.337,48.85L22.193,49.015L22.054,49.175L21.918,49.329L21.788,49.478L21.541,49.758L21.312,50.016L21.104,50.249L20.917,50.458L20.752,50.641L20.61,50.799L20.491,50.93L20.396,51.034L20.326,51.11L20.27,51.17L20.143,51.295L20.003,51.406L19.853,51.502L19.694,51.582L19.527,51.645L19.354,51.691L19.178,51.718L19,51.727L18.822,51.718L18.646,51.691L18.473,51.645L18.306,51.582L18.147,51.502L17.997,51.406L17.857,51.295L17.73,51.17L17.674,51.11L17.604,51.034L17.509,50.93L17.39,50.799L17.248,50.641L17.083,50.458L16.896,50.249L16.688,50.016L16.459,49.758L16.213,49.478L16.082,49.329L15.946,49.175L15.807,49.015L15.663,48.85L15.515,48.68L15.363,48.504L15.208,48.324L15.048,48.138L14.884,47.948L14.717,47.752L14.547,47.552L14.373,47.347L14.196,47.138L14.015,46.924L13.832,46.706L13.645,46.483L13.456,46.256L13.264,46.025L13.069,45.79L12.872,45.551L12.672,45.308L12.47,45.061L12.266,44.811L12.06,44.557L11.852,44.299L11.642,44.038L11.43,43.773L11.216,43.506L11.001,43.235L10.784,42.96L10.566,42.683L10.347,42.403L10.127,42.12L9.905,41.834L9.683,41.546L9.46,41.255L9.236,40.961L9.012,40.665L8.899,40.516L8.787,40.366L8.674,40.216L8.561,40.066L8.449,39.915L8.336,39.763L8.223,39.611L8.11,39.458L7.997,39.304L7.884,39.151L7.771,38.996L7.658,38.842L7.546,38.686L7.433,38.531L7.32,38.375L7.208,38.218L7.095,38.061L6.983,37.904L6.87,37.746L6.758,37.588L6.646,37.429L6.534,37.27L6.423,37.111L6.311,36.951L6.2,36.791L6.089,36.631L5.978,36.471L5.867,36.31L5.757,36.148L5.647,35.987L5.537,35.825L5.427,35.663L5.318,35.501L5.209,35.338L5.101,35.175L4.992,35.012L4.885,34.849L4.777,34.685L4.67,34.522L4.563,34.358L4.457,34.194L4.351,34.029L4.246,33.865L4.141,33.7L4.036,33.536L3.932,33.371L3.828,33.206L3.725,33.041L3.623,32.876L3.521,32.71L3.419,32.545L3.319,32.38L3.218,32.214L3.119,32.049L3.019,31.883L2.921,31.717L2.823,31.552L2.726,31.386L2.629,31.22L2.533,31.055L2.438,30.889L2.343,30.723L2.25,30.558L2.156,30.392L2.064,30.227L1.972,30.061L1.882,29.896L1.791,29.73L1.702,29.565L1.614,29.4L1.526,29.235L1.439,29.07L1.353,28.905L1.268,28.74L1.183,28.575L1.1,28.411L1.017,28.246L0.936,28.082L0.855,27.918L0.775,27.754L0.696,27.59L0.618,27.427L0.542,27.264L0.466,27.1L0.391,26.937L0.317,26.775L0.244,26.612L0.172,26.45L0.101,26.288L0.032,26.126L-0.037,25.964L-0.104,25.803L-0.171,25.642L-0.236,25.481L-0.3,25.32L-0.363,25.16L-0.425,25L-0.485,24.84L-0.545,24.68L-0.603,24.521L-0.66,24.362L-0.715,24.205L-0.743,24.124L-0.77,24.045L-0.796,23.966L-0.823,23.887L-0.849,23.808L-0.875,23.729L-0.9,23.651L-0.925,23.572L-0.95,23.493L-0.974,23.415L-0.998,23.336L-1.022,23.258L-1.045,23.18L-1.068,23.101L-1.091,23.023L-1.113,22.945L-1.135,22.867L-1.157,22.789L-1.178,22.712L-1.199,22.634L-1.22,22.556L-1.24,22.479L-1.26,22.401L-1.279,22.324L-1.298,22.246L-1.317,22.169L-1.335,22.092L-1.353,22.015L-1.371,21.938L-1.388,21.861L-1.405,21.784L-1.421,21.707L-1.437,21.631L-1.453,21.554L-1.468,21.478L-1.483,21.401L-1.497,21.325L-1.512,21.249L-1.525,21.173L-1.538,21.096L-1.551,21.02L-1.563,20.945L-1.575,20.869L-1.587,20.793L-1.598,20.717L-1.609,20.642L-1.619,20.566L-1.629,20.491L-1.638,20.415L-1.647,20.34L-1.656,20.265L-1.664,20.19L-1.671,20.115L-1.678,20.04L-1.685,19.965L-1.691,19.89L-1.697,19.816L-1.702,19.741L-1.707,19.667L-1.711,19.592L-1.715,19.518L-1.718,19.444L-1.721,19.369L-1.723,19.295L-1.725,19.221L-1.726,19.148L-1.727,19.074L-1.727,19L-1.727,18.866L-1.726,18.733L-1.723,18.599L-1.721,18.466L-1.717,18.333L-1.712,18.2L-1.707,18.068L-1.7,17.935L-1.693,17.803L-1.685,17.671L-1.676,17.539L-1.667,17.408L-1.656,17.276L-1.645,17.145L-1.633,17.014L-1.62,16.884L-1.607,16.753L-1.592,16.623L-1.577,16.493L-1.561,16.363L-1.544,16.234L-1.526,16.105L-1.508,15.976L-1.488,15.847L-1.468,15.718L-1.447,15.59L-1.426,15.462L-1.403,15.334L-1.38,15.207L-1.356,15.08L-1.331,14.953L-1.306,14.826L-1.28,14.7L-1.252,14.574L-1.225,14.448L-1.196,14.322L-1.167,14.197L-1.137,14.072L-1.106,13.948L-1.074,13.823L-1.042,13.699L-1.009,13.575L-0.975,13.452L-0.94,13.329L-0.905,13.206L-0.869,13.083L-0.832,12.961L-0.794,12.839L-0.756,12.718L-0.717,12.596L-0.677,12.475L-0.637,12.355L-0.596,12.234L-0.554,12.115L-0.511,11.995L-0.468,11.876L-0.424,11.757L-0.379,11.638L-0.334,11.52L-0.288,11.402L-0.241,11.284L-0.194,11.167L-0.145,11.05L-0.097,10.934L-0.047,10.818L0.003,10.702L0.054,10.587L0.106,10.472L0.158,10.357L0.211,10.243L0.265,10.129L0.319,10.016L0.374,9.902L0.43,9.79L0.486,9.677L0.543,9.566L0.6,9.454L0.659,9.343L0.717,9.232L0.777,9.122L0.837,9.012L0.898,8.902L0.959,8.793L1.022,8.684L1.084,8.576L1.148,8.468L1.212,8.361L1.276,8.254L1.342,8.147L1.407,8.041L1.474,7.935L1.541,7.83L1.609,7.725L1.677,7.62L1.746,7.516L1.816,7.413L1.886,7.31L1.957,7.207L2.028,7.105L2.1,7.003L2.172,6.902L2.246,6.801L2.319,6.7L2.394,6.6L2.468,6.501L2.544,6.402L2.62,6.303L2.697,6.205L2.774,6.108L2.852,6.01L2.93,5.914L3.009,5.818L3.088,5.722L3.168,5.627L3.249,5.532L3.33,5.438L3.412,5.344L3.494,5.251L3.577,5.158L3.66,5.066L3.744,4.974L3.828,4.883L3.913,4.792L3.999,4.702L4.085,4.612L4.172,4.523L4.259,4.434L4.346,4.346L4.434,4.259L4.523,4.172L4.612,4.085L4.702,3.999L4.792,3.913L4.883,3.828L4.974,3.744L5.066,3.66L5.158,3.577L5.251,3.494L5.344,3.412L5.438,3.33L5.532,3.249L5.627,3.168L5.722,3.088L5.818,3.009L5.914,2.93L6.01,2.852L6.108,2.774L6.205,2.697L6.303,2.62L6.402,2.544L6.501,2.468L6.6,2.394L6.7,2.319L6.801,2.246L6.902,2.172L7.003,2.1L7.105,2.028L7.207,1.957L7.31,1.886L7.413,1.816L7.516,1.746L7.62,1.677L7.725,1.609L7.83,1.541L7.935,1.474L8.041,1.407L8.147,1.342L8.254,1.276L8.361,1.212L8.468,1.148L8.576,1.084L8.684,1.022L8.793,0.959L8.902,0.898L9.012,0.837L9.122,0.777L9.232,0.717L9.343,0.659L9.454,0.6L9.566,0.543L9.677,0.486L9.79,0.43L9.903,0.374L10.016,0.319L10.129,0.265L10.243,0.211L10.357,0.158L10.472,0.106L10.587,0.054L10.702,0.003L10.818,-0.047L10.934,-0.097L11.05,-0.145L11.167,-0.194L11.284,-0.241L11.402,-0.288L11.52,-0.334L11.638,-0.379L11.757,-0.424L11.876,-0.468L11.995,-0.511L12.115,-0.554L12.234,-0.596L12.355,-0.637L12.475,-0.677L12.596,-0.717L12.718,-0.756L12.839,-0.794L12.961,-0.832L13.083,-0.869L13.206,-0.905L13.329,-0.94L13.452,-0.975L13.575,-1.009L13.699,-1.042L13.823,-1.074L13.948,-1.106L14.072,-1.137L14.197,-1.167L14.322,-1.196L14.448,-1.225L14.574,-1.252L14.7,-1.28L14.826,-1.306L14.953,-1.331L15.08,-1.356L15.207,-1.38L15.334,-1.403L15.462,-1.426L15.59,-1.447L15.718,-1.468L15.847,-1.488L15.976,-1.508L16.105,-1.526L16.234,-1.544L16.363,-1.561L16.493,-1.577L16.623,-1.592L16.753,-1.607L16.884,-1.62L17.014,-1.633L17.145,-1.645L17.276,-1.656L17.408,-1.667L17.539,-1.676L17.671,-1.685L17.803,-1.693L17.935,-1.7L18.068,-1.707L18.2,-1.712L18.333,-1.717L18.466,-1.721L18.599,-1.723L18.733,-1.726L18.866,-1.727L19,-1.727L19.134,-1.727L19.267,-1.726L19.401,-1.723L19.534,-1.721L19.667,-1.717L19.8,-1.712L19.932,-1.707L20.065,-1.7L20.197,-1.693L20.329,-1.685L20.461,-1.676L20.592,-1.667L20.724,-1.656L20.855,-1.645L20.986,-1.633L21.116,-1.62L21.247,-1.607L21.377,-1.592L21.507,-1.577L21.637,-1.561L21.766,-1.544ZM21.3,0.138L21.18,0.124L21.061,0.111L20.941,0.098L20.822,0.086L20.702,0.075L20.581,0.065L20.461,0.055L20.34,0.047L20.219,0.039L20.098,0.031L19.977,0.025L19.856,0.019L19.734,0.014L19.612,0.01L19.49,0.006L19.368,0.003L19.245,0.002L19.123,0L19,0L18.877,0L18.755,0.002L18.632,0.003L18.51,0.006L18.388,0.01L18.266,0.014L18.144,0.019L18.023,0.025L17.902,0.031L17.781,0.039L17.66,0.047L17.539,0.055L17.419,0.065L17.298,0.075L17.178,0.086L17.059,0.098L16.939,0.111L16.82,0.124L16.7,0.138L16.581,0.153L16.463,0.168L16.344,0.184L16.226,0.201L16.108,0.219L15.99,0.237L15.873,0.257L15.756,0.276L15.639,0.297L15.522,0.318L15.405,0.34L15.289,0.363L15.173,0.386L15.057,0.41L14.942,0.435L14.826,0.461L14.711,0.487L14.597,0.514L14.482,0.541L14.368,0.57L14.254,0.599L14.14,0.628L14.027,0.659L13.914,0.69L13.801,0.721L13.688,0.754L13.576,0.787L13.464,0.82L13.353,0.855L13.241,0.89L13.13,0.926L13.019,0.962L12.909,0.999L12.799,1.037L12.689,1.075L12.579,1.114L12.47,1.154L12.361,1.194L12.252,1.235L12.144,1.277L12.036,1.319L11.928,1.362L11.821,1.405L11.714,1.449L11.607,1.494L11.501,1.54L11.395,1.586L11.289,1.632L11.184,1.679L11.079,1.727L10.974,1.776L10.87,1.825L10.766,1.875L10.662,1.925L10.559,1.976L10.456,2.028L10.353,2.08L10.251,2.133L10.149,2.186L10.048,2.24L9.947,2.295L9.846,2.35L9.745,2.406L9.645,2.462L9.546,2.519L9.446,2.576L9.348,2.634L9.249,2.693L9.151,2.752L9.053,2.812L8.956,2.873L8.859,2.934L8.762,2.995L8.666,3.057L8.57,3.12L8.475,3.183L8.38,3.247L8.285,3.311L8.191,3.376L8.098,3.441L8.004,3.507L7.911,3.574L7.819,3.641L7.727,3.709L7.635,3.777L7.544,3.845L7.453,3.915L7.363,3.984L7.273,4.055L7.183,4.125L7.094,4.197L7.005,4.269L6.917,4.341L6.829,4.414L6.742,4.487L6.655,4.561L6.569,4.636L6.483,4.71L6.397,4.786L6.312,4.862L6.228,4.938L6.143,5.015L6.06,5.093L5.977,5.171L5.894,5.249L5.812,5.328L5.73,5.407L5.648,5.487L5.568,5.568L5.487,5.648L5.407,5.73L5.328,5.812L5.249,5.894L5.171,5.977L5.093,6.06L5.015,6.143L4.938,6.228L4.862,6.312L4.786,6.397L4.71,6.483L4.636,6.569L4.561,6.655L4.487,6.742L4.414,6.829L4.341,6.917L4.269,7.005L4.197,7.094L4.125,7.183L4.055,7.273L3.984,7.363L3.915,7.453L3.845,7.544L3.777,7.635L3.709,7.727L3.641,7.819L3.574,7.911L3.507,8.004L3.441,8.098L3.376,8.191L3.311,8.285L3.247,8.38L3.183,8.475L3.12,8.57L3.057,8.666L2.995,8.762L2.934,8.859L2.873,8.956L2.812,9.053L2.752,9.151L2.693,9.249L2.634,9.348L2.576,9.446L2.519,9.546L2.462,9.645L2.406,9.745L2.35,9.846L2.295,9.947L2.24,10.048L2.186,10.149L2.133,10.251L2.08,10.353L2.028,10.456L1.976,10.559L1.925,10.662L1.875,10.766L1.825,10.87L1.776,10.974L1.727,11.079L1.679,11.184L1.632,11.289L1.586,11.395L1.54,11.501L1.494,11.607L1.449,11.714L1.405,11.821L1.362,11.928L1.319,12.036L1.277,12.144L1.235,12.252L1.194,12.361L1.154,12.47L1.114,12.579L1.075,12.689L1.037,12.799L0.999,12.909L0.962,13.019L0.926,13.13L0.89,13.241L0.855,13.353L0.82,13.464L0.787,13.576L0.754,13.688L0.721,13.801L0.69,13.914L0.659,14.027L0.628,14.14L0.599,14.254L0.57,14.368L0.541,14.482L0.514,14.597L0.487,14.711L0.461,14.826L0.435,14.942L0.41,15.057L0.386,15.173L0.363,15.289L0.34,15.405L0.318,15.522L0.297,15.639L0.276,15.756L0.257,15.873L0.237,15.99L0.219,16.108L0.201,16.226L0.184,16.344L0.168,16.463L0.153,16.581L0.138,16.7L0.124,16.82L0.111,16.939L0.098,17.059L0.086,17.178L0.075,17.298L0.065,17.419L0.055,17.539L0.047,17.66L0.039,17.781L0.031,17.902L0.025,18.023L0.019,18.144L0.014,18.266L0.01,18.388L0.006,18.51L0.003,18.632L0.002,18.755L0,18.877L0,19L0,19.062L0.001,19.123L0.002,19.185L0.003,19.248L0.005,19.31L0.008,19.373L0.011,19.436L0.014,19.499L0.017,19.562L0.021,19.626L0.026,19.689L0.031,19.753L0.036,19.818L0.042,19.882L0.048,19.947L0.055,20.012L0.061,20.077L0.069,20.142L0.077,20.207L0.085,20.273L0.093,20.339L0.102,20.405L0.112,20.471L0.121,20.538L0.131,20.604L0.142,20.671L0.153,20.738L0.164,20.805L0.176,20.873L0.188,20.94L0.201,21.008L0.213,21.076L0.227,21.144L0.24,21.213L0.254,21.281L0.269,21.35L0.283,21.419L0.298,21.488L0.314,21.557L0.33,21.627L0.346,21.696L0.363,21.766L0.38,21.836L0.397,21.906L0.415,21.977L0.433,22.047L0.451,22.118L0.47,22.189L0.489,22.259L0.508,22.331L0.528,22.402L0.548,22.473L0.569,22.545L0.589,22.617L0.611,22.689L0.632,22.761L0.654,22.833L0.676,22.905L0.699,22.978L0.722,23.051L0.745,23.123L0.768,23.196L0.792,23.27L0.816,23.343L0.841,23.416L0.866,23.49L0.891,23.563L0.916,23.637L0.968,23.785L1.022,23.934L1.076,24.083L1.132,24.233L1.189,24.383L1.247,24.533L1.306,24.685L1.366,24.836L1.428,24.988L1.491,25.141L1.555,25.294L1.62,25.447L1.686,25.601L1.753,25.755L1.822,25.909L1.891,26.064L1.962,26.22L2.033,26.375L2.106,26.531L2.18,26.688L2.254,26.844L2.33,27.001L2.406,27.159L2.484,27.316L2.562,27.474L2.642,27.632L2.722,27.791L2.804,27.95L2.886,28.109L2.969,28.268L3.053,28.427L3.137,28.587L3.223,28.746L3.31,28.906L3.397,29.067L3.485,29.227L3.574,29.387L3.663,29.548L3.754,29.709L3.845,29.87L3.937,30.031L4.029,30.192L4.123,30.353L4.217,30.514L4.311,30.675L4.407,30.837L4.503,30.998L4.599,31.159L4.697,31.321L4.795,31.482L4.893,31.644L4.992,31.805L5.092,31.967L5.192,32.128L5.293,32.289L5.394,32.451L5.496,32.612L5.598,32.773L5.701,32.934L5.804,33.095L5.908,33.256L6.012,33.417L6.116,33.577L6.221,33.738L6.327,33.898L6.433,34.058L6.539,34.218L6.645,34.378L6.752,34.538L6.859,34.697L6.967,34.856L7.075,35.015L7.183,35.174L7.292,35.333L7.4,35.491L7.509,35.649L7.619,35.806L7.728,35.964L7.838,36.121L7.948,36.277L8.058,36.434L8.168,36.59L8.278,36.746L8.389,36.901L8.5,37.056L8.611,37.211L8.721,37.365L8.833,37.519L8.944,37.672L9.055,37.825L9.166,37.978L9.277,38.13L9.389,38.281L9.5,38.432L9.611,38.583L9.723,38.733L9.834,38.883L9.945,39.032L10.056,39.181L10.167,39.329L10.279,39.476L10.389,39.623L10.611,39.916L10.832,40.206L11.052,40.493L11.272,40.778L11.491,41.061L11.708,41.34L11.925,41.617L12.141,41.891L12.355,42.162L12.567,42.43L12.779,42.695L12.988,42.956L13.196,43.215L13.402,43.469L13.606,43.721L13.808,43.969L14.008,44.213L14.205,44.453L14.401,44.69L14.593,44.922L14.783,45.151L14.971,45.375L15.155,45.595L15.337,45.811L15.515,46.023L15.69,46.23L15.863,46.433L16.031,46.631L16.196,46.824L16.358,47.013L16.516,47.196L16.67,47.375L16.82,47.548L16.967,47.717L17.109,47.88L17.247,48.038L17.38,48.19L17.509,48.337L17.753,48.614L17.978,48.868L18.184,49.098L18.368,49.304L18.53,49.484L18.67,49.639L18.787,49.767L18.879,49.868L18.945,49.941L19,50L19.055,49.941L19.121,49.868L19.213,49.767L19.33,49.639L19.47,49.484L19.632,49.304L19.816,49.098L20.022,48.868L20.247,48.614L20.491,48.337L20.62,48.19L20.753,48.038L20.891,47.88L21.033,47.717L21.18,47.548L21.33,47.375L21.484,47.196L21.642,47.013L21.804,46.824L21.969,46.631L22.137,46.433L22.31,46.23L22.485,46.023L22.663,45.811L22.845,45.595L23.029,45.375L23.217,45.151L23.407,44.922L23.599,44.69L23.795,44.453L23.992,44.213L24.192,43.969L24.394,43.721L24.598,43.469L24.804,43.215L25.012,42.956L25.221,42.695L25.433,42.43L25.645,42.162L25.859,41.891L26.075,41.617L26.292,41.34L26.509,41.061L26.728,40.778L26.948,40.493L27.168,40.206L27.389,39.916L27.611,39.623L27.721,39.476L27.833,39.329L27.944,39.181L28.055,39.032L28.166,38.883L28.277,38.733L28.389,38.583L28.5,38.432L28.611,38.281L28.723,38.13L28.834,37.978L28.945,37.825L29.056,37.672L29.167,37.519L29.279,37.365L29.389,37.211L29.5,37.056L29.611,36.901L29.722,36.746L29.832,36.59L29.942,36.434L30.052,36.277L30.162,36.121L30.272,35.964L30.381,35.806L30.491,35.649L30.6,35.491L30.708,35.333L30.817,35.174L30.925,35.015L31.033,34.856L31.141,34.697L31.248,34.538L31.355,34.378L31.461,34.218L31.567,34.058L31.673,33.898L31.779,33.738L31.884,33.577L31.988,33.417L32.092,33.256L32.196,33.095L32.299,32.934L32.402,32.773L32.504,32.612L32.606,32.451L32.707,32.289L32.808,32.128L32.908,31.967L33.008,31.805L33.107,31.644L33.205,31.482L33.303,31.321L33.401,31.159L33.497,30.998L33.593,30.837L33.689,30.675L33.783,30.514L33.877,30.353L33.971,30.192L34.063,30.031L34.155,29.87L34.246,29.709L34.337,29.548L34.426,29.387L34.515,29.227L34.603,29.067L34.69,28.906L34.777,28.746L34.863,28.587L34.947,28.427L35.031,28.268L35.114,28.109L35.196,27.95L35.278,27.791L35.358,27.632L35.438,27.474L35.516,27.316L35.594,27.159L35.67,27.001L35.746,26.844L35.82,26.688L35.894,26.531L35.967,26.375L36.038,26.22L36.109,26.064L36.178,25.909L36.247,25.755L36.314,25.601L36.38,25.447L36.445,25.294L36.509,25.141L36.572,24.988L36.634,24.836L36.694,24.685L36.753,24.533L36.811,24.383L36.868,24.233L36.924,24.083L36.978,23.934L37.032,23.785L37.084,23.637L37.109,23.563L37.134,23.49L37.159,23.416L37.184,23.343L37.208,23.27L37.232,23.196L37.255,23.123L37.278,23.051L37.301,22.978L37.324,22.905L37.346,22.833L37.368,22.761L37.389,22.689L37.411,22.617L37.431,22.545L37.452,22.473L37.472,22.402L37.492,22.331L37.511,22.259L37.53,22.189L37.549,22.118L37.567,22.047L37.585,21.977L37.603,21.906L37.62,21.836L37.637,21.766L37.654,21.696L37.67,21.627L37.686,21.557L37.702,21.488L37.717,21.419L37.731,21.35L37.746,21.281L37.76,21.213L37.773,21.144L37.787,21.076L37.799,21.008L37.812,20.94L37.824,20.873L37.836,20.805L37.847,20.738L37.858,20.671L37.869,20.604L37.879,20.538L37.888,20.471L37.898,20.405L37.907,20.339L37.915,20.273L37.923,20.207L37.931,20.142L37.939,20.077L37.945,20.012L37.952,19.947L37.958,19.882L37.964,19.818L37.969,19.753L37.974,19.689L37.979,19.626L37.983,19.562L37.986,19.499L37.989,19.436L37.992,19.373L37.995,19.31L37.997,19.248L37.998,19.185L37.999,19.123L38,19.062L38,19L38,18.877L37.998,18.755L37.997,18.632L37.994,18.51L37.99,18.388L37.986,18.266L37.981,18.144L37.975,18.023L37.969,17.902L37.961,17.781L37.953,17.66L37.945,17.539L37.935,17.419L37.925,17.298L37.914,17.178L37.902,17.059L37.889,16.939L37.876,16.82L37.862,16.7L37.847,16.581L37.832,16.463L37.816,16.344L37.799,16.226L37.781,16.108L37.763,15.99L37.743,15.873L37.724,15.756L37.703,15.639L37.682,15.522L37.66,15.405L37.637,15.289L37.614,15.173L37.59,15.057L37.565,14.942L37.539,14.826L37.513,14.711L37.486,14.597L37.459,14.482L37.43,14.368L37.401,14.254L37.372,14.14L37.341,14.027L37.31,13.914L37.279,13.801L37.246,13.688L37.213,13.576L37.18,13.464L37.145,13.353L37.11,13.241L37.074,13.13L37.038,13.019L37.001,12.909L36.963,12.799L36.925,12.689L36.886,12.579L36.846,12.47L36.806,12.361L36.765,12.252L36.723,12.144L36.681,12.036L36.638,11.928L36.595,11.821L36.551,11.714L36.506,11.607L36.46,11.501L36.414,11.395L36.368,11.289L36.321,11.184L36.273,11.079L36.224,10.974L36.175,10.87L36.125,10.766L36.075,10.662L36.024,10.559L35.972,10.456L35.92,10.353L35.867,10.251L35.814,10.149L35.76,10.048L35.705,9.947L35.65,9.846L35.594,9.745L35.538,9.645L35.481,9.546L35.424,9.446L35.366,9.348L35.307,9.249L35.248,9.151L35.188,9.053L35.127,8.956L35.066,8.859L35.005,8.762L34.943,8.666L34.88,8.57L34.817,8.475L34.753,8.38L34.689,8.285L34.624,8.191L34.559,8.098L34.493,8.004L34.426,7.911L34.359,7.819L34.291,7.727L34.223,7.635L34.155,7.544L34.085,7.453L34.016,7.363L33.945,7.273L33.875,7.183L33.803,7.094L33.731,7.005L33.659,6.917L33.586,6.829L33.513,6.742L33.439,6.655L33.364,6.569L33.29,6.483L33.214,6.397L33.138,6.312L33.062,6.228L32.985,6.143L32.907,6.06L32.829,5.977L32.751,5.894L32.672,5.812L32.593,5.73L32.513,5.648L32.432,5.568L32.352,5.487L32.27,5.407L32.188,5.328L32.106,5.249L32.023,5.171L31.94,5.093L31.857,5.015L31.772,4.938L31.688,4.862L31.603,4.786L31.517,4.71L31.431,4.636L31.345,4.561L31.258,4.487L31.171,4.414L31.083,4.341L30.995,4.269L30.906,4.197L30.817,4.125L30.727,4.055L30.637,3.984L30.547,3.915L30.456,3.845L30.365,3.777L30.273,3.709L30.181,3.641L30.089,3.574L29.996,3.507L29.902,3.441L29.809,3.376L29.715,3.311L29.62,3.247L29.525,3.183L29.43,3.12L29.334,3.057L29.238,2.995L29.141,2.934L29.044,2.873L28.947,2.812L28.849,2.752L28.751,2.693L28.652,2.634L28.554,2.576L28.454,2.519L28.355,2.462L28.255,2.406L28.154,2.35L28.053,2.295L27.952,2.24L27.851,2.186L27.749,2.133L27.647,2.08L27.544,2.028L27.441,1.976L27.338,1.925L27.234,1.875L27.13,1.825L27.026,1.776L26.921,1.727L26.816,1.679L26.711,1.632L26.605,1.586L26.499,1.54L26.393,1.494L26.286,1.449L26.179,1.405L26.072,1.362L25.964,1.319L25.856,1.277L25.748,1.235L25.639,1.194L25.53,1.154L25.421,1.114L25.311,1.075L25.201,1.037L25.091,0.999L24.981,0.962L24.87,0.926L24.759,0.89L24.647,0.855L24.536,0.82L24.424,0.787L24.312,0.754L24.199,0.721L24.086,0.69L23.973,0.659L23.86,0.628L23.746,0.599L23.632,0.57L23.518,0.541L23.403,0.514L23.289,0.487L23.174,0.461L23.058,0.435L22.943,0.41L22.827,0.386L22.711,0.363L22.595,0.34L22.478,0.318L22.361,0.297L22.244,0.276L22.127,0.257L22.01,0.237L21.892,0.219L21.774,0.201L21.656,0.184L21.537,0.168L21.419,0.153L21.3,0.138ZM20.202,10.08L20.258,10.087L20.314,10.095L20.37,10.104L20.426,10.112L20.481,10.122L20.537,10.131L20.592,10.141L20.648,10.151L20.703,10.161L20.758,10.172L20.813,10.183L20.868,10.194L20.922,10.206L20.977,10.218L21.031,10.231L21.086,10.243L21.14,10.256L21.194,10.27L21.248,10.284L21.302,10.298L21.356,10.312L21.409,10.327L21.463,10.342L21.516,10.357L21.569,10.373L21.622,10.389L21.675,10.405L21.728,10.422L21.78,10.438L21.833,10.456L21.885,10.473L21.937,10.491L21.99,10.509L22.041,10.528L22.093,10.546L22.145,10.566L22.196,10.585L22.248,10.605L22.299,10.625L22.35,10.645L22.401,10.666L22.451,10.687L22.502,10.708L22.552,10.729L22.602,10.751L22.652,10.773L22.702,10.796L22.752,10.818L22.802,10.841L22.851,10.864L22.9,10.888L22.95,10.912L22.998,10.936L23.047,10.96L23.096,10.985L23.144,11.01L23.192,11.036L23.241,11.061L23.288,11.087L23.336,11.113L23.384,11.139L23.431,11.166L23.478,11.193L23.525,11.22L23.572,11.248L23.619,11.276L23.665,11.304L23.712,11.332L23.758,11.361L23.804,11.39L23.849,11.419L23.895,11.448L23.94,11.478L23.986,11.508L24.031,11.538L24.075,11.568L24.12,11.599L24.164,11.63L24.209,11.661L24.253,11.693L24.296,11.725L24.34,11.757L24.383,11.789L24.427,11.821L24.47,11.854L24.512,11.887L24.555,11.921L24.597,11.954L24.64,11.988L24.682,12.022L24.723,12.056L24.765,12.091L24.806,12.126L24.848,12.161L24.888,12.196L24.929,12.231L24.97,12.267L25.01,12.303L25.05,12.339L25.09,12.376L25.13,12.412L25.169,12.449L25.208,12.486L25.247,12.524L25.286,12.561L25.324,12.599L25.363,12.637L25.401,12.676L25.439,12.714L25.476,12.753L25.514,12.792L25.551,12.831L25.588,12.87L25.624,12.91L25.661,12.95L25.697,12.99L25.733,13.03L25.769,13.071L25.804,13.112L25.839,13.152L25.874,13.194L25.909,13.235L25.944,13.277L25.978,13.318L26.012,13.36L26.046,13.403L26.079,13.445L26.113,13.488L26.146,13.53L26.179,13.573L26.211,13.617L26.243,13.66L26.275,13.704L26.307,13.747L26.339,13.791L26.37,13.836L26.401,13.88L26.432,13.925L26.462,13.969L26.492,14.014L26.522,14.06L26.552,14.105L26.581,14.151L26.61,14.196L26.639,14.242L26.668,14.288L26.696,14.335L26.724,14.381L26.752,14.428L26.78,14.475L26.807,14.522L26.834,14.569L26.861,14.616L26.887,14.664L26.913,14.712L26.939,14.759L26.964,14.808L26.99,14.856L27.015,14.904L27.04,14.953L27.064,15.002L27.088,15.05L27.112,15.1L27.136,15.149L27.159,15.198L27.182,15.248L27.204,15.298L27.227,15.348L27.249,15.398L27.271,15.448L27.292,15.498L27.313,15.549L27.334,15.599L27.355,15.65L27.375,15.701L27.395,15.752L27.415,15.804L27.434,15.855L27.454,15.907L27.472,15.959L27.491,16.01L27.509,16.063L27.527,16.115L27.544,16.167L27.562,16.22L27.578,16.272L27.595,16.325L27.611,16.378L27.627,16.431L27.643,16.484L27.658,16.537L27.673,16.591L27.688,16.644L27.702,16.698L27.716,16.752L27.73,16.806L27.744,16.86L27.757,16.914L27.769,16.969L27.782,17.023L27.794,17.078L27.806,17.132L27.817,17.187L27.828,17.242L27.839,17.297L27.849,17.352L27.859,17.408L27.869,17.463L27.878,17.519L27.888,17.574L27.896,17.63L27.905,17.686L27.913,17.742L27.92,17.798L27.928,17.854L27.935,17.911L27.941,17.967L27.948,18.024L27.953,18.08L27.959,18.137L27.964,18.194L27.969,18.251L27.974,18.308L27.978,18.365L27.982,18.422L27.985,18.48L27.988,18.537L27.991,18.595L27.993,18.652L27.995,18.71L27.997,18.768L27.998,18.826L27.999,18.884L28,18.942L28,19L28,19.058L27.999,19.116L27.998,19.174L27.997,19.232L27.995,19.29L27.993,19.348L27.991,19.405L27.988,19.463L27.985,19.52L27.982,19.578L27.978,19.635L27.974,19.692L27.969,19.749L27.964,19.806L27.959,19.863L27.953,19.92L27.948,19.976L27.941,20.033L27.935,20.089L27.928,20.146L27.92,20.202L27.913,20.258L27.905,20.314L27.896,20.37L27.888,20.426L27.878,20.481L27.869,20.537L27.859,20.592L27.849,20.648L27.839,20.703L27.828,20.758L27.817,20.813L27.806,20.868L27.794,20.922L27.782,20.977L27.769,21.031L27.757,21.086L27.744,21.14L27.73,21.194L27.716,21.248L27.702,21.302L27.688,21.356L27.673,21.409L27.658,21.463L27.643,21.516L27.627,21.569L27.611,21.622L27.595,21.675L27.578,21.728L27.562,21.78L27.544,21.833L27.527,21.885L27.509,21.937L27.491,21.99L27.472,22.041L27.454,22.093L27.434,22.145L27.415,22.196L27.395,22.248L27.375,22.299L27.355,22.35L27.334,22.401L27.313,22.451L27.292,22.502L27.271,22.552L27.249,22.602L27.227,22.652L27.204,22.702L27.182,22.752L27.159,22.802L27.136,22.851L27.112,22.9L27.088,22.95L27.064,22.998L27.04,23.047L27.015,23.096L26.99,23.144L26.964,23.192L26.939,23.241L26.913,23.288L26.887,23.336L26.861,23.384L26.834,23.431L26.807,23.478L26.78,23.525L26.752,23.572L26.724,23.619L26.696,23.665L26.668,23.712L26.639,23.758L26.61,23.804L26.581,23.849L26.552,23.895L26.522,23.94L26.492,23.986L26.462,24.031L26.432,24.075L26.401,24.12L26.37,24.164L26.339,24.209L26.307,24.253L26.275,24.296L26.243,24.34L26.211,24.383L26.179,24.427L26.146,24.47L26.113,24.512L26.079,24.555L26.046,24.597L26.012,24.64L25.978,24.682L25.944,24.723L25.909,24.765L25.874,24.806L25.839,24.848L25.804,24.888L25.769,24.929L25.733,24.97L25.697,25.01L25.661,25.05L25.624,25.09L25.588,25.13L25.551,25.169L25.514,25.208L25.476,25.247L25.439,25.286L25.401,25.324L25.363,25.363L25.324,25.401L25.286,25.439L25.247,25.476L25.208,25.514L25.169,25.551L25.13,25.588L25.09,25.624L25.05,25.661L25.01,25.697L24.97,25.733L24.929,25.769L24.888,25.804L24.848,25.839L24.806,25.874L24.765,25.909L24.723,25.944L24.682,25.978L24.64,26.012L24.597,26.046L24.555,26.079L24.512,26.113L24.47,26.146L24.427,26.179L24.383,26.211L24.34,26.243L24.296,26.275L24.253,26.307L24.209,26.339L24.164,26.37L24.12,26.401L24.075,26.432L24.031,26.462L23.986,26.492L23.94,26.522L23.895,26.552L23.849,26.581L23.804,26.61L23.758,26.639L23.712,26.668L23.665,26.696L23.619,26.724L23.572,26.752L23.525,26.78L23.478,26.807L23.431,26.834L23.384,26.861L23.336,26.887L23.288,26.913L23.241,26.939L23.192,26.964L23.144,26.99L23.096,27.015L23.047,27.04L22.998,27.064L22.95,27.088L22.9,27.112L22.851,27.136L22.802,27.159L22.752,27.182L22.702,27.204L22.652,27.227L22.602,27.249L22.552,27.271L22.502,27.292L22.451,27.313L22.401,27.334L22.35,27.355L22.299,27.375L22.248,27.395L22.196,27.415L22.145,27.434L22.093,27.454L22.041,27.472L21.99,27.491L21.937,27.509L21.885,27.527L21.833,27.544L21.78,27.562L21.728,27.578L21.675,27.595L21.622,27.611L21.569,27.627L21.516,27.643L21.463,27.658L21.409,27.673L21.356,27.688L21.302,27.702L21.248,27.716L21.194,27.73L21.14,27.744L21.086,27.757L21.031,27.769L20.977,27.782L20.922,27.794L20.868,27.806L20.813,27.817L20.758,27.828L20.703,27.839L20.648,27.849L20.592,27.859L20.537,27.869L20.481,27.878L20.426,27.888L20.37,27.896L20.314,27.905L20.258,27.913L20.202,27.92L20.146,27.928L20.089,27.935L20.033,27.941L19.976,27.948L19.92,27.953L19.863,27.959L19.806,27.964L19.749,27.969L19.692,27.974L19.635,27.978L19.578,27.982L19.52,27.985L19.463,27.988L19.405,27.991L19.348,27.993L19.29,27.995L19.232,27.997L19.174,27.998L19.116,27.999L19.058,28L19,28L18.942,28L18.884,27.999L18.826,27.998L18.768,27.997L18.71,27.995L18.652,27.993L18.595,27.991L18.537,27.988L18.48,27.985L18.422,27.982L18.365,27.978L18.308,27.974L18.251,27.969L18.194,27.964L18.137,27.959L18.08,27.953L18.024,27.948L17.967,27.941L17.911,27.935L17.854,27.928L17.798,27.92L17.742,27.913L17.686,27.905L17.63,27.896L17.574,27.888L17.519,27.878L17.463,27.869L17.408,27.859L17.352,27.849L17.297,27.839L17.242,27.828L17.187,27.817L17.132,27.806L17.078,27.794L17.023,27.782L16.969,27.769L16.914,27.757L16.86,27.744L16.806,27.73L16.752,27.716L16.698,27.702L16.644,27.688L16.591,27.673L16.537,27.658L16.484,27.643L16.431,27.627L16.378,27.611L16.325,27.595L16.272,27.578L16.22,27.562L16.167,27.544L16.115,27.527L16.063,27.509L16.01,27.491L15.959,27.472L15.907,27.454L15.855,27.434L15.804,27.415L15.752,27.395L15.701,27.375L15.65,27.355L15.599,27.334L15.549,27.313L15.498,27.292L15.448,27.271L15.398,27.249L15.348,27.227L15.298,27.204L15.248,27.182L15.198,27.159L15.149,27.136L15.1,27.112L15.05,27.088L15.002,27.064L14.953,27.04L14.904,27.015L14.856,26.99L14.808,26.964L14.759,26.939L14.712,26.913L14.664,26.887L14.616,26.861L14.569,26.834L14.522,26.807L14.475,26.78L14.428,26.752L14.381,26.724L14.335,26.696L14.288,26.668L14.242,26.639L14.196,26.61L14.151,26.581L14.105,26.552L14.06,26.522L14.014,26.492L13.969,26.462L13.925,26.432L13.88,26.401L13.836,26.37L13.791,26.339L13.747,26.307L13.704,26.275L13.66,26.243L13.617,26.211L13.573,26.179L13.53,26.146L13.488,26.113L13.445,26.079L13.403,26.046L13.36,26.012L13.318,25.978L13.277,25.944L13.235,25.909L13.194,25.874L13.152,25.839L13.112,25.804L13.071,25.769L13.03,25.733L12.99,25.697L12.95,25.661L12.91,25.624L12.87,25.588L12.831,25.551L12.792,25.514L12.753,25.476L12.714,25.439L12.676,25.401L12.637,25.363L12.599,25.324L12.561,25.286L12.524,25.247L12.486,25.208L12.449,25.169L12.412,25.13L12.376,25.09L12.339,25.05L12.303,25.01L12.267,24.97L12.231,24.929L12.196,24.888L12.161,24.848L12.126,24.806L12.091,24.765L12.056,24.723L12.022,24.682L11.988,24.64L11.954,24.597L11.921,24.555L11.887,24.512L11.854,24.47L11.821,24.427L11.789,24.383L11.757,24.34L11.725,24.296L11.693,24.253L11.661,24.209L11.63,24.164L11.599,24.12L11.568,24.075L11.538,24.031L11.508,23.986L11.478,23.94L11.448,23.895L11.419,23.849L11.39,23.804L11.361,23.758L11.332,23.712L11.304,23.665L11.276,23.619L11.248,23.572L11.22,23.525L11.193,23.478L11.166,23.431L11.139,23.384L11.113,23.336L11.087,23.288L11.061,23.241L11.036,23.192L11.01,23.144L10.985,23.096L10.96,23.047L10.936,22.998L10.912,22.95L10.888,22.9L10.864,22.851L10.841,22.802L10.818,22.752L10.796,22.702L10.773,22.652L10.751,22.602L10.729,22.552L10.708,22.502L10.687,22.451L10.666,22.401L10.645,22.35L10.625,22.299L10.605,22.248L10.585,22.196L10.566,22.145L10.546,22.093L10.528,22.041L10.509,21.99L10.491,21.937L10.473,21.885L10.456,21.833L10.438,21.78L10.422,21.728L10.405,21.675L10.389,21.622L10.373,21.569L10.357,21.516L10.342,21.463L10.327,21.409L10.312,21.356L10.298,21.302L10.284,21.248L10.27,21.194L10.256,21.14L10.243,21.086L10.231,21.031L10.218,20.977L10.206,20.922L10.194,20.868L10.183,20.813L10.172,20.758L10.161,20.703L10.151,20.648L10.141,20.592L10.131,20.537L10.122,20.481L10.112,20.426L10.104,20.37L10.095,20.314L10.087,20.258L10.08,20.202L10.072,20.146L10.065,20.089L10.059,20.033L10.052,19.976L10.047,19.92L10.041,19.863L10.036,19.806L10.031,19.749L10.026,19.692L10.022,19.635L10.018,19.578L10.015,19.52L10.012,19.463L10.009,19.405L10.007,19.348L10.005,19.29L10.003,19.232L10.002,19.174L10.001,19.116L10,19.058L10,19L10,18.942L10.001,18.884L10.002,18.826L10.003,18.768L10.005,18.71L10.007,18.652L10.009,18.595L10.012,18.537L10.015,18.48L10.018,18.422L10.022,18.365L10.026,18.308L10.031,18.251L10.036,18.194L10.041,18.137L10.047,18.08L10.052,18.024L10.059,17.967L10.065,17.911L10.072,17.854L10.08,17.798L10.087,17.742L10.095,17.686L10.104,17.63L10.112,17.574L10.122,17.519L10.131,17.463L10.141,17.408L10.151,17.352L10.161,17.297L10.172,17.242L10.183,17.187L10.194,17.132L10.206,17.078L10.218,17.023L10.231,16.969L10.243,16.914L10.256,16.86L10.27,16.806L10.284,16.752L10.298,16.698L10.312,16.644L10.327,16.591L10.342,16.537L10.357,16.484L10.373,16.431L10.389,16.378L10.405,16.325L10.422,16.272L10.438,16.22L10.456,16.167L10.473,16.115L10.491,16.063L10.509,16.01L10.528,15.959L10.546,15.907L10.566,15.855L10.585,15.804L10.605,15.752L10.625,15.701L10.645,15.65L10.666,15.599L10.687,15.549L10.708,15.498L10.729,15.448L10.751,15.398L10.773,15.348L10.796,15.298L10.818,15.248L10.841,15.198L10.864,15.149L10.888,15.1L10.912,15.05L10.936,15.002L10.96,14.953L10.985,14.904L11.01,14.856L11.036,14.808L11.061,14.759L11.087,14.712L11.113,14.664L11.139,14.616L11.166,14.569L11.193,14.522L11.22,14.475L11.248,14.428L11.276,14.381L11.304,14.335L11.332,14.288L11.361,14.242L11.39,14.196L11.419,14.151L11.448,14.105L11.478,14.06L11.508,14.014L11.538,13.969L11.568,13.925L11.599,13.88L11.63,13.836L11.661,13.791L11.693,13.747L11.725,13.704L11.757,13.66L11.789,13.617L11.821,13.573L11.854,13.53L11.887,13.488L11.921,13.445L11.954,13.403L11.988,13.36L12.022,13.318L12.056,13.277L12.091,13.235L12.126,13.194L12.161,13.152L12.196,13.112L12.231,13.071L12.267,13.03L12.303,12.99L12.339,12.95L12.376,12.91L12.412,12.87L12.449,12.831L12.486,12.792L12.524,12.753L12.561,12.714L12.599,12.676L12.637,12.637L12.676,12.599L12.714,12.561L12.753,12.524L12.792,12.486L12.831,12.449L12.87,12.412L12.91,12.376L12.95,12.339L12.99,12.303L13.03,12.267L13.071,12.231L13.112,12.196L13.152,12.161L13.194,12.126L13.235,12.091L13.277,12.056L13.318,12.022L13.36,11.988L13.403,11.954L13.445,11.921L13.488,11.887L13.53,11.854L13.573,11.821L13.617,11.789L13.66,11.757L13.704,11.725L13.747,11.693L13.791,11.661L13.836,11.63L13.88,11.599L13.925,11.568L13.969,11.538L14.014,11.508L14.06,11.478L14.105,11.448L14.151,11.419L14.196,11.39L14.242,11.361L14.288,11.332L14.335,11.304L14.381,11.276L14.428,11.248L14.475,11.22L14.522,11.193L14.569,11.166L14.616,11.139L14.664,11.113L14.712,11.087L14.759,11.061L14.808,11.036L14.856,11.01L14.904,10.985L14.953,10.96L15.002,10.936L15.05,10.912L15.1,10.888L15.149,10.864L15.198,10.841L15.248,10.818L15.298,10.796L15.348,10.773L15.398,10.751L15.448,10.729L15.498,10.708L15.549,10.687L15.599,10.666L15.65,10.645L15.701,10.625L15.752,10.605L15.804,10.585L15.855,10.566L15.907,10.546L15.959,10.528L16.01,10.509L16.063,10.491L16.115,10.473L16.167,10.456L16.22,10.438L16.272,10.422L16.325,10.405L16.378,10.389L16.431,10.373L16.484,10.357L16.537,10.342L16.591,10.327L16.644,10.312L16.698,10.298L16.752,10.284L16.806,10.27L16.86,10.256L16.914,10.243L16.969,10.231L17.023,10.218L17.078,10.206L17.132,10.194L17.187,10.183L17.242,10.172L17.297,10.161L17.352,10.151L17.408,10.141L17.463,10.131L17.519,10.122L17.574,10.112L17.63,10.104L17.686,10.095L17.742,10.087L17.798,10.08L17.854,10.072L17.911,10.065L17.967,10.059L18.024,10.052L18.08,10.047L18.137,10.041L18.194,10.036L18.251,10.031L18.308,10.026L18.365,10.022L18.422,10.018L18.48,10.015L18.537,10.012L18.595,10.009L18.652,10.007L18.71,10.005L18.768,10.003L18.826,10.002L18.884,10.001L18.942,10L19,10L19.058,10L19.116,10.001L19.174,10.002L19.232,10.003L19.29,10.005L19.348,10.007L19.405,10.009L19.463,10.012L19.52,10.015L19.578,10.018L19.635,10.022L19.692,10.026L19.749,10.031L19.806,10.036L19.863,10.041L19.92,10.047L19.976,10.052L20.033,10.059L20.089,10.065L20.146,10.072L20.202,10.08ZM19.882,11.78L19.836,11.775L19.791,11.77L19.745,11.765L19.699,11.76L19.653,11.756L19.607,11.752L19.561,11.749L19.515,11.745L19.468,11.742L19.422,11.739L19.375,11.737L19.329,11.735L19.282,11.733L19.235,11.731L19.188,11.73L19.141,11.729L19.094,11.728L19.047,11.727L19,11.727L18.953,11.727L18.906,11.728L18.859,11.729L18.812,11.73L18.765,11.731L18.718,11.733L18.671,11.735L18.625,11.737L18.578,11.739L18.532,11.742L18.485,11.745L18.439,11.749L18.393,11.752L18.347,11.756L18.301,11.76L18.255,11.765L18.209,11.77L18.164,11.775L18.118,11.78L18.072,11.786L18.027,11.792L17.982,11.798L17.937,11.804L17.891,11.811L17.846,11.818L17.801,11.826L17.757,11.833L17.712,11.841L17.667,11.849L17.623,11.858L17.578,11.866L17.534,11.875L17.49,11.884L17.445,11.894L17.401,11.904L17.357,11.914L17.314,11.924L17.27,11.934L17.226,11.945L17.183,11.956L17.139,11.968L17.096,11.979L17.053,11.991L17.01,12.003L16.967,12.015L16.924,12.028L16.881,12.041L16.838,12.054L16.796,12.068L16.753,12.081L16.711,12.095L16.669,12.109L16.627,12.124L16.585,12.138L16.543,12.153L16.501,12.168L16.46,12.184L16.418,12.199L16.377,12.215L16.335,12.231L16.294,12.248L16.253,12.264L16.212,12.281L16.171,12.298L16.131,12.316L16.09,12.333L16.05,12.351L16.01,12.369L15.969,12.388L15.929,12.406L15.89,12.425L15.85,12.444L15.81,12.463L15.771,12.483L15.731,12.502L15.692,12.522L15.653,12.543L15.614,12.563L15.575,12.584L15.536,12.605L15.498,12.626L15.459,12.647L15.421,12.669L15.383,12.69L15.345,12.712L15.307,12.735L15.269,12.757L15.232,12.78L15.194,12.803L15.157,12.826L15.12,12.849L15.083,12.873L15.046,12.896L15.01,12.92L14.973,12.945L14.937,12.969L14.9,12.994L14.864,13.019L14.828,13.044L14.793,13.069L14.757,13.094L14.722,13.12L14.686,13.146L14.651,13.172L14.616,13.198L14.581,13.225L14.547,13.252L14.512,13.279L14.478,13.306L14.444,13.333L14.41,13.361L14.376,13.388L14.342,13.416L14.309,13.444L14.276,13.473L14.243,13.501L14.21,13.53L14.177,13.559L14.144,13.588L14.112,13.617L14.079,13.647L14.047,13.677L14.015,13.706L13.984,13.737L13.952,13.767L13.921,13.797L13.89,13.828L13.859,13.859L13.828,13.89L13.797,13.921L13.767,13.952L13.736,13.984L13.706,14.016L13.677,14.047L13.647,14.079L13.617,14.112L13.588,14.144L13.559,14.177L13.53,14.21L13.501,14.243L13.473,14.276L13.444,14.309L13.416,14.342L13.388,14.376L13.361,14.41L13.333,14.444L13.306,14.478L13.279,14.512L13.252,14.547L13.225,14.581L13.198,14.616L13.172,14.651L13.146,14.686L13.12,14.722L13.094,14.757L13.069,14.793L13.044,14.828L13.019,14.864L12.994,14.9L12.969,14.937L12.945,14.973L12.92,15.01L12.896,15.046L12.873,15.083L12.849,15.12L12.826,15.157L12.803,15.194L12.78,15.232L12.757,15.269L12.735,15.307L12.712,15.345L12.69,15.383L12.669,15.421L12.647,15.459L12.626,15.498L12.605,15.536L12.584,15.575L12.563,15.614L12.543,15.653L12.522,15.692L12.502,15.731L12.483,15.771L12.463,15.81L12.444,15.85L12.425,15.889L12.406,15.929L12.388,15.969L12.369,16.01L12.351,16.05L12.333,16.09L12.316,16.131L12.298,16.171L12.281,16.212L12.264,16.253L12.248,16.294L12.231,16.335L12.215,16.377L12.199,16.418L12.184,16.46L12.168,16.501L12.153,16.543L12.138,16.585L12.124,16.627L12.109,16.669L12.095,16.711L12.081,16.753L12.068,16.796L12.054,16.838L12.041,16.881L12.028,16.924L12.015,16.967L12.003,17.01L11.991,17.053L11.979,17.096L11.968,17.139L11.956,17.183L11.945,17.226L11.934,17.27L11.924,17.314L11.914,17.357L11.904,17.401L11.894,17.445L11.884,17.49L11.875,17.534L11.866,17.578L11.858,17.623L11.849,17.667L11.841,17.712L11.833,17.757L11.826,17.801L11.818,17.846L11.811,17.891L11.804,17.937L11.798,17.982L11.792,18.027L11.786,18.072L11.78,18.118L11.775,18.164L11.77,18.209L11.765,18.255L11.76,18.301L11.756,18.347L11.752,18.393L11.749,18.439L11.745,18.485L11.742,18.532L11.739,18.578L11.737,18.625L11.735,18.671L11.733,18.718L11.731,18.765L11.73,18.812L11.729,18.859L11.728,18.906L11.727,18.953L11.727,19L11.727,19.047L11.728,19.094L11.729,19.141L11.73,19.188L11.731,19.235L11.733,19.282L11.735,19.329L11.737,19.375L11.739,19.422L11.742,19.468L11.745,19.515L11.749,19.561L11.752,19.607L11.756,19.653L11.76,19.699L11.765,19.745L11.77,19.791L11.775,19.836L11.78,19.882L11.786,19.928L11.792,19.973L11.798,20.018L11.804,20.063L11.811,20.109L11.818,20.154L11.826,20.199L11.833,20.243L11.841,20.288L11.849,20.333L11.858,20.377L11.866,20.422L11.875,20.466L11.884,20.51L11.894,20.555L11.904,20.599L11.914,20.643L11.924,20.686L11.934,20.73L11.945,20.774L11.956,20.817L11.968,20.861L11.979,20.904L11.991,20.947L12.003,20.99L12.015,21.033L12.028,21.076L12.041,21.119L12.054,21.162L12.068,21.204L12.081,21.247L12.095,21.289L12.109,21.331L12.124,21.373L12.138,21.415L12.153,21.457L12.168,21.499L12.184,21.54L12.199,21.582L12.215,21.623L12.231,21.665L12.248,21.706L12.264,21.747L12.281,21.788L12.298,21.829L12.316,21.869L12.333,21.91L12.351,21.95L12.369,21.99L12.388,22.031L12.406,22.071L12.425,22.11L12.444,22.15L12.463,22.19L12.483,22.229L12.502,22.269L12.522,22.308L12.543,22.347L12.563,22.386L12.584,22.425L12.605,22.464L12.626,22.502L12.647,22.541L12.669,22.579L12.69,22.617L12.712,22.655L12.735,22.693L12.757,22.731L12.78,22.768L12.803,22.806L12.826,22.843L12.849,22.88L12.873,22.917L12.896,22.954L12.92,22.99L12.945,23.027L12.969,23.063L12.994,23.1L13.019,23.136L13.044,23.172L13.069,23.207L13.094,23.243L13.12,23.278L13.146,23.314L13.172,23.349L13.198,23.384L13.225,23.419L13.252,23.453L13.279,23.488L13.306,23.522L13.333,23.556L13.361,23.59L13.388,23.624L13.416,23.658L13.444,23.691L13.473,23.724L13.501,23.757L13.53,23.79L13.559,23.823L13.588,23.856L13.617,23.888L13.647,23.921L13.677,23.953L13.706,23.985L13.736,24.016L13.767,24.048L13.797,24.079L13.828,24.11L13.859,24.141L13.89,24.172L13.921,24.203L13.952,24.233L13.984,24.264L14.016,24.294L14.047,24.323L14.079,24.353L14.112,24.383L14.144,24.412L14.177,24.441L14.21,24.47L14.243,24.499L14.276,24.527L14.309,24.556L14.342,24.584L14.376,24.612L14.41,24.639L14.444,24.667L14.478,24.694L14.512,24.721L14.547,24.748L14.581,24.775L14.616,24.802L14.651,24.828L14.686,24.854L14.722,24.88L14.757,24.906L14.793,24.931L14.828,24.956L14.864,24.981L14.9,25.006L14.937,25.031L14.973,25.055L15.01,25.08L15.046,25.104L15.083,25.127L15.12,25.151L15.157,25.174L15.194,25.197L15.232,25.22L15.269,25.243L15.307,25.265L15.345,25.288L15.383,25.31L15.421,25.331L15.459,25.353L15.498,25.374L15.536,25.395L15.575,25.416L15.614,25.437L15.653,25.457L15.692,25.478L15.731,25.498L15.771,25.517L15.81,25.537L15.85,25.556L15.89,25.575L15.929,25.594L15.969,25.612L16.01,25.631L16.05,25.649L16.09,25.667L16.131,25.684L16.171,25.702L16.212,25.719L16.253,25.736L16.294,25.752L16.335,25.769L16.377,25.785L16.418,25.801L16.46,25.816L16.501,25.832L16.543,25.847L16.585,25.862L16.627,25.876L16.669,25.891L16.711,25.905L16.753,25.919L16.796,25.932L16.838,25.946L16.881,25.959L16.924,25.972L16.967,25.985L17.01,25.997L17.053,26.009L17.096,26.021L17.139,26.032L17.183,26.044L17.226,26.055L17.27,26.066L17.314,26.076L17.357,26.086L17.401,26.096L17.445,26.106L17.49,26.116L17.534,26.125L17.578,26.134L17.623,26.142L17.667,26.151L17.712,26.159L17.757,26.167L17.801,26.174L17.846,26.182L17.891,26.189L17.937,26.196L17.982,26.202L18.027,26.208L18.073,26.214L18.118,26.22L18.164,26.225L18.209,26.23L18.255,26.235L18.301,26.24L18.347,26.244L18.393,26.248L18.439,26.251L18.485,26.255L18.532,26.258L18.578,26.261L18.625,26.263L18.671,26.265L18.718,26.267L18.765,26.269L18.812,26.27L18.859,26.271L18.906,26.272L18.953,26.273L19,26.273L19.047,26.273L19.094,26.272L19.141,26.271L19.188,26.27L19.235,26.269L19.282,26.267L19.329,26.265L19.375,26.263L19.422,26.261L19.468,26.258L19.515,26.255L19.561,26.251L19.607,26.248L19.653,26.244L19.699,26.24L19.745,26.235L19.791,26.23L19.836,26.225L19.882,26.22L19.928,26.214L19.973,26.208L20.018,26.202L20.063,26.196L20.109,26.189L20.154,26.182L20.199,26.174L20.243,26.167L20.288,26.159L20.333,26.151L20.377,26.142L20.422,26.134L20.466,26.125L20.51,26.116L20.555,26.106L20.599,26.096L20.643,26.086L20.686,26.076L20.73,26.066L20.774,26.055L20.817,26.044L20.861,26.032L20.904,26.021L20.947,26.009L20.99,25.997L21.033,25.985L21.076,25.972L21.119,25.959L21.162,25.946L21.204,25.932L21.247,25.919L21.289,25.905L21.331,25.891L21.373,25.876L21.415,25.862L21.457,25.847L21.499,25.832L21.54,25.816L21.582,25.801L21.623,25.785L21.665,25.769L21.706,25.752L21.747,25.736L21.788,25.719L21.829,25.702L21.869,25.684L21.91,25.667L21.95,25.649L21.99,25.631L22.031,25.612L22.071,25.594L22.11,25.575L22.15,25.556L22.19,25.537L22.229,25.517L22.269,25.498L22.308,25.478L22.347,25.457L22.386,25.437L22.425,25.416L22.464,25.395L22.502,25.374L22.541,25.353L22.579,25.331L22.617,25.31L22.655,25.288L22.693,25.265L22.731,25.243L22.768,25.22L22.806,25.197L22.843,25.174L22.88,25.151L22.917,25.127L22.954,25.104L22.99,25.08L23.027,25.055L23.063,25.031L23.1,25.006L23.136,24.981L23.172,24.956L23.207,24.931L23.243,24.906L23.278,24.88L23.314,24.854L23.349,24.828L23.384,24.802L23.419,24.775L23.453,24.748L23.488,24.721L23.522,24.694L23.556,24.667L23.59,24.639L23.624,24.612L23.657,24.584L23.691,24.556L23.724,24.527L23.757,24.499L23.79,24.47L23.823,24.441L23.856,24.412L23.888,24.383L23.921,24.353L23.953,24.323L23.985,24.294L24.016,24.263L24.048,24.233L24.079,24.203L24.11,24.172L24.141,24.141L24.172,24.11L24.203,24.079L24.233,24.048L24.263,24.016L24.294,23.985L24.323,23.953L24.353,23.921L24.383,23.888L24.412,23.856L24.441,23.823L24.47,23.79L24.499,23.757L24.527,23.724L24.556,23.691L24.584,23.658L24.612,23.624L24.639,23.59L24.667,23.556L24.694,23.522L24.721,23.488L24.748,23.453L24.775,23.419L24.802,23.384L24.828,23.349L24.854,23.314L24.88,23.278L24.906,23.243L24.931,23.207L24.956,23.172L24.981,23.136L25.006,23.1L25.031,23.063L25.055,23.027L25.08,22.99L25.104,22.954L25.127,22.917L25.151,22.88L25.174,22.843L25.197,22.806L25.22,22.768L25.243,22.731L25.265,22.693L25.288,22.655L25.31,22.617L25.331,22.579L25.353,22.541L25.374,22.502L25.395,22.464L25.416,22.425L25.437,22.386L25.457,22.347L25.478,22.308L25.498,22.269L25.517,22.229L25.537,22.19L25.556,22.15L25.575,22.111L25.594,22.071L25.612,22.031L25.631,21.99L25.649,21.95L25.667,21.91L25.684,21.869L25.702,21.829L25.719,21.788L25.736,21.747L25.752,21.706L25.769,21.665L25.785,21.623L25.801,21.582L25.816,21.541L25.832,21.499L25.847,21.457L25.862,21.415L25.876,21.373L25.891,21.331L25.905,21.289L25.919,21.247L25.932,21.204L25.946,21.162L25.959,21.119L25.972,21.076L25.985,21.033L25.997,20.99L26.009,20.947L26.021,20.904L26.032,20.861L26.044,20.817L26.055,20.774L26.066,20.73L26.076,20.686L26.086,20.643L26.096,20.599L26.106,20.555L26.116,20.51L26.125,20.466L26.134,20.422L26.142,20.377L26.151,20.333L26.159,20.288L26.167,20.243L26.174,20.199L26.182,20.154L26.189,20.109L26.196,20.064L26.202,20.018L26.208,19.973L26.214,19.928L26.22,19.882L26.225,19.836L26.23,19.791L26.235,19.745L26.24,19.699L26.244,19.653L26.248,19.607L26.251,19.561L26.255,19.515L26.258,19.468L26.261,19.422L26.263,19.375L26.265,19.329L26.267,19.282L26.269,19.235L26.27,19.188L26.271,19.141L26.272,19.094L26.273,19.047L26.273,19L26.273,18.953L26.272,18.906L26.271,18.859L26.27,18.812L26.269,18.765L26.267,18.718L26.265,18.671L26.263,18.625L26.261,18.578L26.258,18.532L26.255,18.485L26.251,18.439L26.248,18.393L26.244,18.347L26.24,18.301L26.235,18.255L26.23,18.209L26.225,18.164L26.22,18.118L26.214,18.072L26.208,18.027L26.202,17.982L26.196,17.937L26.189,17.891L26.182,17.846L26.174,17.801L26.167,17.757L26.159,17.712L26.151,17.667L26.142,17.623L26.134,17.578L26.125,17.534L26.116,17.49L26.106,17.445L26.096,17.401L26.086,17.357L26.076,17.314L26.066,17.27L26.055,17.226L26.044,17.183L26.032,17.139L26.021,17.096L26.009,17.053L25.997,17.01L25.985,16.967L25.972,16.924L25.959,16.881L25.946,16.838L25.932,16.796L25.919,16.753L25.905,16.711L25.891,16.669L25.876,16.627L25.862,16.585L25.847,16.543L25.832,16.501L25.816,16.46L25.801,16.418L25.785,16.377L25.769,16.335L25.752,16.294L25.736,16.253L25.719,16.212L25.702,16.171L25.684,16.131L25.667,16.09L25.649,16.05L25.631,16.01L25.612,15.969L25.594,15.929L25.575,15.89L25.556,15.85L25.537,15.81L25.517,15.771L25.498,15.731L25.478,15.692L25.457,15.653L25.437,15.614L25.416,15.575L25.395,15.536L25.374,15.498L25.353,15.459L25.331,15.421L25.31,15.383L25.288,15.345L25.265,15.307L25.243,15.269L25.22,15.232L25.197,15.194L25.174,15.157L25.151,15.12L25.127,15.083L25.104,15.046L25.08,15.01L25.055,14.973L25.031,14.937L25.006,14.9L24.981,14.864L24.956,14.828L24.931,14.793L24.906,14.757L24.88,14.722L24.854,14.686L24.828,14.651L24.802,14.616L24.775,14.581L24.748,14.547L24.721,14.512L24.694,14.478L24.667,14.444L24.639,14.41L24.612,14.376L24.584,14.342L24.556,14.309L24.527,14.276L24.499,14.242L24.47,14.21L24.441,14.177L24.412,14.144L24.383,14.112L24.353,14.079L24.323,14.047L24.294,14.015L24.263,13.984L24.233,13.952L24.203,13.921L24.172,13.89L24.141,13.859L24.11,13.828L24.079,13.797L24.048,13.767L24.016,13.736L23.985,13.706L23.953,13.677L23.921,13.647L23.888,13.617L23.856,13.588L23.823,13.559L23.79,13.53L23.757,13.501L23.724,13.473L23.691,13.444L23.658,13.416L23.624,13.388L23.59,13.361L23.556,13.333L23.522,13.306L23.488,13.279L23.453,13.252L23.419,13.225L23.384,13.198L23.349,13.172L23.314,13.146L23.278,13.12L23.243,13.094L23.207,13.069L23.172,13.044L23.136,13.019L23.1,12.994L23.063,12.969L23.027,12.945L22.99,12.92L22.954,12.896L22.917,12.873L22.88,12.849L22.843,12.826L22.806,12.803L22.768,12.78L22.731,12.757L22.693,12.735L22.655,12.712L22.617,12.69L22.579,12.669L22.541,12.647L22.502,12.626L22.464,12.605L22.425,12.584L22.386,12.563L22.347,12.543L22.308,12.522L22.269,12.502L22.229,12.483L22.19,12.463L22.15,12.444L22.11,12.425L22.071,12.406L22.031,12.388L21.99,12.369L21.95,12.351L21.91,12.333L21.869,12.316L21.829,12.298L21.788,12.281L21.747,12.264L21.706,12.248L21.665,12.231L21.623,12.215L21.582,12.199L21.54,12.184L21.499,12.168L21.457,12.153L21.415,12.138L21.373,12.124L21.331,12.109L21.289,12.095L21.247,12.081L21.204,12.068L21.162,12.054L21.119,12.041L21.076,12.028L21.033,12.015L20.99,12.003L20.947,11.991L20.904,11.979L20.861,11.968L20.817,11.956L20.774,11.945L20.73,11.934L20.686,11.924L20.643,11.914L20.599,11.904L20.555,11.894L20.51,11.884L20.466,11.875L20.422,11.866L20.377,11.858L20.333,11.849L20.288,11.841L20.243,11.833L20.199,11.826L20.154,11.818L20.109,11.811L20.064,11.804L20.018,11.798L19.973,11.792L19.928,11.786L19.882,11.78Z" style="fill:white;"/>
        </g>
        <g transform="matrix(1.22321,0,0,1.22321,326.759,219.42)">
            <path d="M19,0C29.486,0 38,8.514 38,19C38,29.486 19,50 19,50C19,50 0,29.486 0,19C0,8.514 8.514,0 19,0ZM19,10C23.967,10 28,14.033 28,19C28,23.967 23.967,28 19,28C14.033,28 10,23.967 10,19C10,14.033 14.033,10 19,10Z" style="fill:rgb(204,51,51);"/>
        </g>
    </g>
</svg>
